<?xml version="1.0" encoding="utf-8"?>
<!-- Generator: Adobe Illustrator 27.8.0, SVG Export Plug-In . SVG Version: 6.00 Build 0)  -->
<svg version="1.1" id="Layer_1" xmlns="http://www.w3.org/2000/svg" xmlns:xlink="http://www.w3.org/1999/xlink" x="0px" y="0px"
	 viewBox="0 0 768 768" style="enable-background:new 0 0 768 768;" xml:space="preserve">
<style type="text/css">
	.st0{fill:#FEBB00;}
	.st1{fill:#14281C;}
	.st2{fill:#00883E;}
	.st3{fill:#F8E396;}
	.st4{fill:#00DB60;}
	.st5{fill:#FBFBFB;}
</style>
<rect class="st0" width="768" height="768"/>
<path class="st0" d="M662,468.1c-1.7,12.1-2.7,24.3-4.8,36.3c-3.4,19.9-11.8,37.9-24.6,53.5c-18.4,22.5-43,33.3-71.4,36.5
	c-20.1,2.3-40.1,0.7-60.2-0.6c-0.6,0-1.2-0.2-1.9-0.2c-1.2,0-2.8-0.7-3.5,0.3c-0.8,1.1,0.5,2.3,1,3.4c8.1,14.9,14.8,30.6,24.5,44.6
	c11.8,17,25,32.7,40.1,46.8c4.6,4.3,9.7,8.2,13.9,13.1c0.6,0.7,1.8,1.5,1,2.5c-0.3,0.5-1.6,0.4-2.4,0.4c-5.2-0.2-10.5,0.6-15.7-0.5
	c-8.8,0.2-17.6,1.7-26.5,0.9c-10.8,0.1-21.6,0.1-32.4,0.2c-0.9,0-1.8,0-2.2-1c-14.7,0-29.4,0-44.1,0.1c-1.8,0-66.1,0.1-72,0.1
	c-17.7,0.1-35.5,0.2-53.2,0.2c-6.7,0-13.5-0.1-20.2-0.1c-11.7,0.1-23.5,0.1-35.2,0.2c-2.4,0-2.6-1.1-2.6-3c0.1-8-0.1-16,0.2-24
	c0.1-3.4-1.2-6-3.6-7.7c-5.8-4-11.9-7.6-18.6-11.7c0,6.2,0,11.6,0,17.1c0,6.4,0,12.8,0,19.1c0,2.5-0.4,4.8-3.2,5.7
	c-2.9,0.9-4.5-0.7-5.8-2.9c-15-24.6-26-50.6-28.5-79.6c-0.7-8.3-0.9-16.7-0.2-25c0.1-1.3,0.2-2.6-0.5-4
	c-5.2-9.8-10.3-19.7-15.4-29.6c-0.3-0.6-0.8-1.1-1.6-2.2c-1.8,5.1-3.4,9.6-4.9,14.2c-3,8.9-6.1,17.7-9.1,26.6
	c-0.9,2.7-2.1,5.2-5.7,4.8c-3.3-0.4-3.8-3-4.2-5.8c-4.5-31.2-5.9-62.4,0.2-93.5c2.8-14.2,7.3-27.8,14.3-40.4c1.5-2.8,2.1-3.9-2-4.5
	c-20-3-37.9-11.2-54.4-22.8c-2-1.4-3.9-2.9-3.5-5.7c0.4-2.7,2.6-3.4,4.8-4.2c17.6-6.3,35.2-12.6,52.9-19c1.3-0.5,2.5-1,3.8-1.6
	c-0.6-1.3-1.7-1.1-2.6-1.3c-18-4.2-35.2-10.2-50.5-20.9c-7.4-5.2-13.9-11.4-19.2-18.8c-1.7-2.3-3.2-4.6-5.7-6.3
	c-2.6-1.8-3.1-4.8-1.5-7.7c1.6-3.1,4.4-4.2,8.3-3c6.6,2,13.1,4,19.9,5.3c15.6,2.8,31.2,3.1,47.9-0.3c-4.1-2.1-7.4-3.8-10.7-5.5
	c-17.6-9.3-33.1-21-44.2-37.9c-7.6-11.5-11.6-24.2-12.9-37.9c-0.3-3,0.6-5.5,3.2-7.1c2.8-1.7,5.4-0.9,8.1,0.7
	c16.7,10.4,34.3,18.9,53.5,23.7c12.7,3.1,25.6,4.1,38.6,3.5c0.7,0,1.5-0.2,2.2-0.3c0.2,0,0.4-0.3,0.8-0.7c-3.5-3.1-7.6-5.1-11.6-7.3
	c-8.4-4.5-17.1-8.2-26.1-11.1c-3.4-1.1-5.9-2.8-6.1-6.6c-0.2-3.9,2.4-5.7,5.6-7c13.7-5.4,27.9-8.5,42.6-8.9c0-1.8-1.5-2.1-2.4-2.7
	c-10.5-7.6-21.3-14.9-31.5-22.9c-14.9-11.5-24.8-26.8-31.1-44.5c-8.1-22.5-12.1-45.5-11.5-69.4c0.3-13.1,2.5-26.1,5.2-38.9
	c0.7-3.2,3.1-4.8,6.2-5c3.4-0.2,5.6,1.7,6.7,4.9c2.5,7.7,5.3,15.3,8.7,22.7c11.3,24.3,27,45.5,47.7,62.6
	c14,11.6,30.3,17.6,48.5,16.5c26.6-1.6,46.3,10.4,62.1,30.4c8.2,10.3,14.6,21.7,20.3,33.6c0.9,2,1.9,2.8,4.2,2.7
	c28.3-2.1,56.3,1.3,84.2,5.5c0.9,0.1,1.7,0.1,2.6,0.2c0.1-0.1,0.3-0.3,0.4-0.4c-4.6-5.7-10-10.7-14.2-16.8
	c-14.6-20.9-19.5-44.2-17.6-69.3c0.8-10.5,2.8-20.8,5.3-30.9c0.8-3.4,3-5.2,6.4-5.3c3.4-0.1,5.6,1.8,6.6,5.1
	c0.2,0.7,0.4,1.4,0.7,2.1c5.5,17.9,13.5,34.6,25.6,49.1c17.2,20.7,39.5,33.5,65.7,38c11,1.9,18.3,7.5,25.5,14.4
	c25.2,24.3,42.6,53.2,52,87c0.7,2.5,2,4.4,3.7,6.3c21.5,22.9,39.1,48.2,49.9,78c4.4,12.1,5.3,24.8,7.8,37.3
	C663.9,449.3,663.3,458.6,662,468.1L662,468.1z"/>
<path class="st1" d="M350.7,551.6c-11.8-6.7-23.8-13.2-35.5-20c-7-4.1-13.8-8.6-20.6-12.9c-1-0.6-2.1-1.3-4-2.5
	c19.5,72.3,59.5,131.6,108.3,186.3c-6.4,0-12.3,0-18.2,0c-1-1.3-1.8-2.7-2.9-3.9c-8.2-8.9-15.8-18.4-23-28.1
	c-22.2-29.7-42.2-60.6-57.2-94.7c-10.4-23.5-18.3-47.8-24.1-72.8c-0.8-3.6-0.3-6.6,2.7-8.6c3.1-2.1,6.1-1,9,1.1
	c20.2,15.1,41.7,28,64,39.6c24,12.5,49.1,22.4,75.1,29.7c21.9,6.2,44.2,10.1,66.8,12.5c11.9,1.2,23.9,1.8,35.8,2.5
	c18.1,1,35.9,0.3,53.4-4.8c11.1-3.3,21.3-8.5,30.1-16.2c0.3-0.2,0.7-0.3,1-0.5c17.8-15.7,28.6-35.4,32.7-58.7
	c1.2-6.8,2-13.6,2.7-20.4c1.1-9.9,3.9-19.8,3.2-29.7c-0.9-12.9-2.6-25.9-6.3-38.3c-6-20.2-16.3-38.3-28.7-55.3
	c-2.5-3.4-2.5-3.4-4.9,0.2c-2.3,2.3-4.7,4.6-7,6.9c-5.8,3.7-11.8,7-18.7,8.3c-1.6,0.3-2,1-1.1,2.6c7.3,13.5,6.5,27.6,2.8,41.9
	c-0.6,2.5-1.9,4-4.4,5c-12.1,4.9-24.9,6.4-37.7,7.4c-6.4,0.5-12.8,0.7-20.2,1.1c9.9,4.8,18.8,9.1,28.1,13.7
	c-1.8,1.2-2.5,0.4-3.2,0.1c-17.2-8.6-34.5-17.1-53.3-21.8c-1.1-0.3-2-0.8-2.8-1.8c-13.4-19.1-16.8-38.9-2.7-59.1
	c10.4-15,25.1-24.8,40.6-33.6c1.5-0.8,2.9-0.5,4.4-0.2c13.5,2.7,26.9,5.4,40.4,8c6.1,2,12.5,2.9,18.8,4.1c2.5,0.1,4.9,2,8,1.3
	c-3.1-3.9-6.2-7-9.5-10c-0.3-0.3-0.3-1-1-0.8l0.1,0.1c-0.2-0.8-0.5-1.6-1.5-0.8l0,0.1c0.6-2.1-1.3-2.6-2.3-3.5
	c-12.9-12.4-27.2-23.1-42.6-32.3c-23.3-13.8-48.2-23.6-74.3-30.3c-20.3-5.2-41.2-7.9-62-10.1c-29.5-3.1-58.8-3.1-87.8,4.1
	c-22.2,5.6-42.9,14.7-61.8,27.7c-6.8,4.2-13.1,9.1-19.2,14.2c-0.8,0.7-2,1.2-3,1.4c-13.2,3-26.7,4.1-40.2,2.9
	c-22.8-2-44-9.5-64.2-20.1c-0.9-0.5-1.7-1.5-3.4-0.8c3.1,9.6,7.5,18.4,14.7,25.6c6.3,7.9,13.9,14.3,22.6,19.4
	c0.2,0.1,0.4,0.2,0.6,0.2l-0.1,0c1,0.7,2,1.5,3.1,2.1c10.7,6.2,22,11.2,33.7,15.4c3.2,1.1,5.1,3.3,5.1,6.7c0,3-1.6,5.4-4.4,6.4
	c-18.5,6.4-37.4,9.7-57.1,8.1c-7.6-0.6-15.1-1.7-23.4-3.6c3.8,4.7,7.7,7.9,11.8,10.9c14.6,10.5,31.2,16.1,48.5,20
	c6.4,1.4,13,2.5,19.5,3.7c2.4,0.4,3.9,1.6,4.3,4c0.4,2.6-1,4.3-3.3,5.3c-0.8,0.4-1.6,0.6-2.4,0.9c-19.3,6.9-38.6,13.8-57.8,20.8
	c-2,0.7-4,1.6-6.6,2.6c5.2,3.1,9.7,6.1,14.8,7.7c4.2,2.8,9,4.2,13.8,5.7c6.8,2.1,13.7,3.6,20.9,4.2c2.3,0.2,4.5-1.7,6.6-0.7
	c5.4,2.6,10.9,0.8,16.2,0.2c8.2-0.9,16.2-3.1,23.9-5.8c1.8-0.6,3.7-1.1,5.4-0.1c1.6,0.9,2.6,2.5,2.3,4.4c-0.3,2.1-1.6,3.5-3.7,4.3
	c-11.4,4.4-23.3,6.7-35.3,7.8c-4.4,0.4-3.9,2.4-3.4,5c3.8,21.8,8.6,43.3,15.3,64.4c9.8,30.8,22.5,60.3,37.6,88.9
	c12.3,23.3,26.4,45.5,41.7,67c4.5,6.4,8.9,12.9,13.3,19.4c-11.7,0.1-23.5,0.1-35.2,0.2c-2.4,0-2.6-1.1-2.6-3c0.1-8-0.1-16,0.2-24
	c0.1-3.4-1.2-6-3.6-7.7c-5.8-4-11.9-7.6-18.6-11.7c0,6.2,0,11.6,0,17.1c0,6.4,0,12.8,0,19.1c0,2.5-0.4,4.8-3.2,5.7
	c-2.9,0.9-4.5-0.7-5.8-2.9c-15-24.6-26-50.6-28.5-79.6c-0.7-8.3-0.9-16.7-0.2-25c0.1-1.3,0.2-2.6-0.5-4
	c-5.2-9.8-10.3-19.7-15.4-29.6c-0.3-0.6-0.8-1.1-1.6-2.2c-1.8,5.1-3.4,9.6-4.9,14.2c-3,8.9-6.1,17.7-9.1,26.6
	c-0.9,2.7-2.1,5.2-5.7,4.8c-3.3-0.4-3.8-3-4.2-5.8c-4.5-31.2-5.9-62.4,0.2-93.5c2.8-14.2,7.3-27.8,14.3-40.4c1.5-2.8,2.1-3.9-2-4.5
	c-20-3-37.9-11.2-54.4-22.8c-2-1.4-3.9-2.9-3.5-5.7c0.4-2.7,2.6-3.4,4.8-4.2c17.6-6.3,35.2-12.6,52.9-19c1.3-0.5,2.5-1,3.8-1.6
	c-0.6-1.3-1.7-1.1-2.6-1.3c-18-4.2-35.2-10.2-50.5-21c-7.4-5.2-13.9-11.4-19.2-18.8c-1.7-2.3-3.2-4.6-5.7-6.3
	c-2.6-1.8-3.1-4.8-1.5-7.7c1.6-3.1,4.4-4.2,8.3-3c6.6,2,13.1,4,19.9,5.3c15.6,2.8,31.2,3.1,47.9-0.3c-4.1-2.1-7.4-3.8-10.7-5.5
	c-17.6-9.3-33.1-21-44.2-37.9c-7.6-11.5-11.6-24.2-12.9-37.9c-0.3-3,0.6-5.5,3.2-7.1c2.8-1.7,5.4-0.9,8.1,0.7
	c16.7,10.4,34.3,18.9,53.5,23.7c12.7,3.1,25.6,4.1,38.6,3.5c0.8,0,1.5-0.2,2.2-0.3c0.2,0,0.4-0.3,0.8-0.7c-3.5-3.1-7.6-5.1-11.6-7.3
	c-8.4-4.5-17.1-8.2-26.1-11.1c-3.4-1.1-5.9-2.8-6.1-6.6c-0.2-3.9,2.4-5.7,5.6-7c13.7-5.4,27.9-8.5,42.6-8.9c0-1.8-1.5-2.1-2.4-2.7
	c-10.5-7.6-21.3-14.9-31.5-22.9c-14.9-11.5-24.8-26.8-31.1-44.5c-8.1-22.5-12.1-45.5-11.5-69.4c0.3-13.1,2.5-26.1,5.2-38.9
	c0.7-3.2,3.1-4.8,6.2-5c3.4-0.2,5.6,1.7,6.7,4.9c2.5,7.7,5.3,15.3,8.7,22.7c11.3,24.3,27,45.5,47.7,62.6
	c14,11.6,30.3,17.6,48.5,16.5c26.6-1.6,46.3,10.4,62.1,30.4c8.2,10.3,14.6,21.7,20.3,33.6c0.9,1.9,1.9,2.8,4.2,2.7
	c28.3-2.1,56.3,1.3,84.2,5.5c0.9,0.1,1.7,0.1,2.6,0.2c0.3,0,0.5,0,0.8,0c-0.1-0.1-0.2-0.3-0.4-0.4c-4.6-5.7-10-10.7-14.2-16.8
	c-14.6-20.9-19.5-44.2-17.6-69.3c0.8-10.5,2.8-20.8,5.3-30.9c0.8-3.4,3-5.2,6.4-5.3c3.4-0.1,5.6,1.8,6.6,5.1
	c0.2,0.7,0.4,1.4,0.7,2.1c5.5,17.9,13.5,34.6,25.6,49.1c17.2,20.7,39.5,33.5,65.7,38c11,1.9,18.3,7.5,25.5,14.4
	c25.2,24.3,42.6,53.2,52,87c0.7,2.5,2,4.4,3.7,6.3c21.5,22.9,39.1,48.2,49.9,77.9c4.4,12.1,5.3,24.8,7.8,37.3
	c1.9,9.5,1.3,18.8,0,28.2c-1.7,12.1-2.7,24.3-4.8,36.3c-3.4,19.9-11.8,37.9-24.6,53.5c-18.4,22.5-43,33.3-71.4,36.5
	c-20.1,2.3-40.1,0.7-60.2-0.6c-0.6,0-1.2-0.2-1.9-0.2c-1.2,0-2.8-0.7-3.5,0.3c-0.8,1.1,0.5,2.3,1,3.4c8.1,14.9,14.8,30.6,24.5,44.6
	c11.8,17,25,32.7,40.1,46.8c4.6,4.3,9.7,8.2,13.9,13.1c0.6,0.7,1.8,1.5,1,2.5c-0.3,0.5-1.6,0.4-2.4,0.4c-5.2-0.2-10.5,0.6-15.7-0.5
	c-2.4-2.3-4.9-4.5-7.1-7.1c-2.7-3.4-3.2-3.2-5.8,0.1c-1.5,1.9-3.3,3.4-5.5,4.3c-2.7,1.1-5.4,2.4-8.2,3.6
	c-10.8,0.1-21.6,0.1-32.4,0.2c-0.9,0-1.8,0-2.2-1c-0.1-1.7,0.5-2.6,2.4-3.1c3.5-0.9,7.1-1.8,10-4c8.6-6.3,18.3-9.8,28.5-12.2
	c0.2,0,0.3-0.3,0.5-0.5c-11-12.9-22.5-25.5-32-40.5c-2.2,7.5-6.9,11-13.3,13.5c-20.4,8-41.3,13.8-63.1,16.5
	c-8,0.2-15.9,0.7-23.8,1.4c-14.6,1.2-25.3-4.8-33.5-16.2c-2.4-3.2-6.3-4.2-9.7-7.1c4.5,0.1,8.5-1.1,12.3,1.3c1,0.6,2.4,0.8,3.6,0.8
	c12.3,0,24.7,0.2,37-0.8c1.3,0.4,2.6,0.8,3.9,1.2c17,5,33.8,5.1,49.2-4.4c8-5,16.3-8.2,25.3-10.4c1.8-0.5,3.6-1.2,5.4-1.5
	c2.7-0.5,2.7-1.5,1.5-3.7c-7.1-13.3-14-26.7-20.9-40.2c-1-1.9-2.1-2.7-4.2-3c-25.1-3.3-49.5-9.1-73.5-17
	c-17.7-5.8-34.8-13.1-51.7-20.8L350.7,551.6z M428,156.7c-0.2-0.7-0.3-1.4-0.6-2.1c-0.1-0.3-0.4-0.5-0.6-0.8c0,0.4-0.1,0.9-0.1,1.3
	c-2.1,18,0.4,35.4,8.4,51.7c14.3,29,39.1,44.2,69.5,51.6c0.1,0.2,0.3,0.3,0.5,0.2c0.2,0.1,0.5,0.3,0.7,0.4
	c13.4,5.5,26.8,10.7,39.5,17.7c11.9,7,23.7,14.2,34.6,23.1c0.8-2-0.2-3.1-0.8-4.3c-11.2-25.2-27.4-46.6-48.4-64.4
	c-0.8-0.6-1.6-1.6-2.4-1.6c-7.5-0.6-14.5-3.4-21.9-4.8c-0.7-0.3-1.3-0.7-2-0.9c-34.2-11.2-58.9-33.3-75-65.3
	C429.1,158,429,157,428,156.7L428,156.7L428,156.7z M162.8,135.2c1.9,17.5,6.9,34.2,14.5,50.1c4.8,10,11.5,18.6,20.3,25.1
	c23,17,46.3,33.6,69.4,50.4c1.1,0.8,2.1,1.2,3.4,0.5c3.5-1.9,7-3.7,10.5-5.6c0.4,0,0.8,0.1,1.1-0.1c12.9-6,26.4-10.2,40.2-13.5
	c5.9-1.1,11.7-2.2,17.8-3.3c-0.2-0.6-0.3-1.2-0.6-1.8c-5.8-11.4-12.4-22.3-21-31.7c-13.3-14.5-29.1-22.9-49.4-20.6
	c-21.9-0.6-41.3-7.7-57.8-22.1c-17.9-15.5-32.3-33.9-43.4-54.8c-1.8-3.4-3.6-6.9-5.9-11.3C160.8,110.2,160.4,122.7,162.8,135.2
	L162.8,135.2z M521.1,427.5c18.5-0.4,36.5-1,54.1-5.9c6.2-1.7,10.1-4.6,10.4-11.4c0.1-1.9,0.7-3.7,1-5.5c2-16.6-1.9-31.2-14.8-42.7
	c-1.3-1.2-2.6-2-4.6-2.1c-11.2-0.4-22.4-1-33.6-1.4c-4.2-0.1-8.3,0-12.7,0C537.9,381.3,531.2,404.1,521.1,427.5L521.1,427.5z
	 M580.4,300.2l0.2,0.2l0-0.3L580.4,300.2z"/>
<path class="st2" d="M610.2,558.8c-8.8,7.7-18.9,13-30.1,16.2c-17.4,5.1-35.3,5.8-53.4,4.8c-12-0.7-23.9-1.2-35.8-2.5
	c-22.6-2.3-44.9-6.3-66.8-12.5c-26-7.4-51.1-17.2-75.1-29.7c-22.3-11.6-43.8-24.5-64-39.6c-2.8-2.1-5.9-3.2-9-1.1
	c-3,2-3.5,5-2.7,8.6c5.8,25,13.7,49.3,24.1,72.8c15,34,35.1,65,57.2,94.7c7.2,9.7,14.8,19.2,23,28.1c1.1,1.2,1.9,2.6,2.9,3.9
	c-17.7,0.1-35.5,0.2-53.2,0.2c-6.7,0-13.5-0.1-20.2-0.1c-4.4-6.5-8.8-13-13.3-19.4c-15.3-21.5-29.4-43.7-41.7-67
	c-15.1-28.6-27.7-58.1-37.6-88.9c-6.7-21.1-11.6-42.6-15.3-64.4c-0.4-2.6-1-4.6,3.4-5c12-1.2,23.9-3.4,35.3-7.8
	c2.1-0.8,3.4-2.1,3.7-4.3c0.3-1.9-0.7-3.5-2.3-4.4c-1.8-1-3.6-0.6-5.4,0.1c-7.8,2.7-15.8,4.9-23.9,5.8c-5.3,0.6-10.8,2.5-16.2-0.2
	c-2.1-1-4.3,0.8-6.6,0.7c-7.1-0.5-14.1-2-20.9-4.2c-4.7-1.5-9.5-2.9-13.8-5.7c7.8-2.6,15.5-5.4,23.9-2.7c0.8,0.3,1.7,0.3,2.6,0.4
	c16.7,1.2,32.1-2.9,46.5-11.2c2.2-1.3,2.4-2.5,1.3-4.5c-2.4-4.2-4.6-8.6-7.3-12.6c-1.6-2.5-1.7-4.5-0.4-7.2c7.5-16.9,8-33.9,0.4-51
	c-1.2-2.7-2.8-4.3-5.8-5c-10.9-2.6-21.6-5.9-31.9-10.5c-5-2.2-9.6-5.4-15-6.6l0.1,0c-0.2-0.1-0.4-0.1-0.6-0.2
	c-8.7-5.1-16.3-11.5-22.6-19.4c1.2,0.3,2.4,0.5,3.6,0.9c12.6,4.5,25.2,8.7,38,12.5c12.9,3.8,26,7.5,39.4,8.3
	c19.1,1.1,38.1-0.4,56.7-5.5c15.1-4.1,30.5-6.2,46.1-6.4c1.5,0,3.5-0.5,4,1.7c1.7,6.3,1.9,16.3-4,22.6c-7,7.5-16.2,9.6-25.7,10.8
	c-8.6,1.1-13.7,5.8-16.9,13.4c-2.5,5.7-3.2,11.8-3.4,17.9c-0.6,13.3,1.7,26.3,4.3,39.3c3,15.1,7.5,29.7,11.6,44.5
	c1.3,4.5,3.5,6.9,7.5,8.8c24,11.4,48.2,22.5,72.8,32.5c30.3,12.3,61,23.5,92.7,31.8c21.4,5.6,42.9,10.1,65,11.7
	c14.7,1.1,29.3,1,44-0.6c7.9-0.9,15.6-5,23.8-1.7c1.2,1.2,2.5,2.2,4.2,2.4C609.3,554.1,610.6,556.2,610.2,558.8L610.2,558.8z"/>
<path class="st3" d="M350.7,551.6c16.9,7.8,34,15,51.7,20.8c24,7.9,48.5,13.7,73.5,17c2.1,0.3,3.3,1.1,4.2,3
	c6.9,13.4,13.8,26.8,20.9,40.2c1.2,2.2,1.2,3.3-1.5,3.7c-1.8,0.3-3.6,1.1-5.4,1.5c-8.9,2.2-17.3,5.4-25.3,10.4
	c-15.3,9.5-32.2,9.4-49.2,4.4c-1.3-0.4-2.6-0.8-3.9-1.2c-4.8-8.6-10.6-16.4-15.9-24.7c-2.5-4-5-7.9-7.5-11.9
	c9.7-3.8,19.2-8.1,28.6-12.8c5.2-2.6,7.6-6.6,8.5-11.9c0.2-1.3,1.1-3-0.1-3.8c-1-0.7-2.3,0.5-3.4,1c-13.8,6-27.9,11.3-42.6,14.6
	c-6.1-10.5-13.3-20.4-19.9-30.6C359.1,564.8,354.5,558.5,350.7,551.6L350.7,551.6z"/>
<path class="st3" d="M429.9,672.1c21.8-2.6,42.7-8.4,63.1-16.5c6.3-2.5,11.1-6.1,13.3-13.5c9.5,15,21,27.6,32,40.5
	c-0.2,0.2-0.3,0.5-0.5,0.5c-10.2,2.4-19.9,6-28.5,12.2c-2.9,2.1-6.6,3-10,4c-1.8,0.5-2.5,1.4-2.4,3.1c-14.7,0-29.4,0-44.1,0.1
	c-1.8,0-3-0.3-4.1-2C442.5,691,435.6,681.9,429.9,672.1L429.9,672.1z"/>
<path class="st1" d="M383.1,602c14.7-3.3,28.8-8.6,42.6-14.6c1.1-0.5,2.4-1.7,3.4-1c1.2,0.9,0.4,2.6,0.1,3.8
	c-0.9,5.3-3.3,9.3-8.5,11.9c-9.3,4.7-18.9,9-28.6,12.8c-8.2,1.8-16.3,4.6-24.7,5.6c-1.5,0.2-3,0.3-4.4,0.7c-8.3,1.9-15.5-0.1-21.7-6
	c-2.4-2.3-4.8-4.7-9.4-5.4c3.7-1.4,6.1-1.6,8.9-0.7c3,1,6.1-0.4,9.2-0.8C361.3,606.9,372.4,605.4,383.1,602L383.1,602z"/>
<path class="st3" d="M531.5,703.1c2.7-1.2,5.4-2.5,8.2-3.6c2.2-0.9,4-2.4,5.5-4.3c2.6-3.3,3-3.5,5.8-0.1c2.1,2.6,4.7,4.8,7.1,7.1
	C549.1,702.4,540.4,704,531.5,703.1z"/>
<path class="st4" d="M603.6,549.7c-8.2-3.3-15.9,0.8-23.8,1.7c-14.7,1.7-29.3,1.7-44,0.6c-22.1-1.6-43.6-6.1-65-11.7
	c-31.7-8.3-62.4-19.4-92.7-31.8c-24.6-10-48.8-21.1-72.8-32.5c-4-1.9-6.3-4.3-7.6-8.8c-4.2-14.8-8.6-29.4-11.6-44.5
	c-2.6-13-4.8-26-4.3-39.3c0.3-6.1,1-12.2,3.4-17.9c3.2-7.5,8.3-12.3,16.9-13.4c9.4-1.2,18.6-3.3,25.7-10.8c5.9-6.3,5.7-16.3,4-22.6
	c-0.6-2.2-2.5-1.7-4-1.7c-15.6,0.2-31,2.4-46.1,6.4c-18.6,5-37.6,6.6-56.7,5.4c-13.5-0.8-26.5-4.5-39.4-8.3
	c-12.8-3.7-25.5-8-38.1-12.5c-1.2-0.4-2.4-0.6-3.6-0.9c-7.2-7.2-11.5-16-14.7-25.6c1.7-0.7,2.5,0.3,3.4,0.8
	c20.2,10.6,41.4,18.1,64.2,20.1c13.5,1.2,26.9,0.1,40.2-2.9c1.1-0.2,2.2-0.7,3-1.4c6.1-5.1,12.4-10,19.2-14.2c2.1,0.4,3.9-0.4,5.8-1
	c7.1-2,14.2-4.4,21.4-5.9c0.2,5.4,2.8,7.2,7.8,5.3c27-10,54.7-16.6,83.4-18.4c41.7-2.7,81.9,3.9,120.2,21
	c28.2,12.6,54,29.1,77.3,49.4c-13.5-2.7-26.9-5.3-40.4-8c-1.5-0.3-2.9-0.6-4.4,0.2c-15.5,8.8-30.3,18.7-40.6,33.6
	c-14,20.2-10.7,40.1,2.7,59.1c0.7,1,1.7,1.5,2.8,1.8c18.8,4.7,36,13.2,53.3,21.8c0.7,0.4,1.4,1.1,3.2-0.1
	c-9.4-4.6-18.3-8.9-28.1-13.7c7.4-0.4,13.8-0.6,20.2-1.1c12.9-1,25.6-2.5,37.7-7.4c2.4-1,3.7-2.5,4.4-5c3.7-14.3,4.5-28.4-2.8-41.9
	c-0.9-1.6-0.5-2.2,1.1-2.6c6.9-1.3,12.9-4.6,18.7-8.3c6.8,9.1,12.7,18.9,17.6,29.1c12.8,26.4,17.8,53.9,12.8,83
	c-4.2,24.6-14.5,46.6-28.1,67.2C603.8,544.7,602.7,546.9,603.6,549.7L603.6,549.7z M398.8,360.6c0,0.2,0,0.4-0.1,0.6
	c-0.4,0.1-0.7,0.2-1,0.3c-23.6,5.5-47.2,11-70.8,16.4c-2.8,0.6-3.9,2.1-4.5,4.6c-2,9.3,1.5,15,10.9,17.1c9.1,2,18.2,0.7,27.1-0.9
	c2.2-0.4,3.8,0.1,5.5,1.3c4.9,3.7,9.9,7.2,14.8,10.9c1.5,1.1,3,1.5,4.9,1.3c21.6-3,43.3-5.9,65-8.7c1.5-0.2,2.6-0.5,3.5-1.8
	c7.9-11.4,15.3-23.1,19.5-36.5c1.6-5.2,2.5-10.5,1.4-15.9c-2-9.6-10.4-16.2-22.5-17.8c-12.1-1.6-24.2-1.2-36.2,0.4
	c-9.9,1.4-19.8,3-29.8,1.4c-13.8-2.2-26.3-7.9-37.5-16c-2.9-2.1-4.2-1.5-5.6,1.5c-3.7,7.6-2.8,14.8,1.8,21.6
	c5.1,7.5,12.3,12.6,19.9,17.4c1.2,0.8,2.6,0.8,4,0.9C378.8,359.2,388.8,359.9,398.8,360.6L398.8,360.6z M491.6,499.6
	c10.2,0.2,24.7-0.6,38.8-5.4c7.9-2.7,14.7-7,18.2-15c1.2-2.8,0.8-5.2-1.9-6.8c-2.6-1.5-5.3-0.6-6.8,2.5c-2,4.2-5.4,6.8-9.4,8.7
	c-3.6,1.8-7.4,2.9-11.4,3.7c-22.5,4.3-45,2.5-67.6,0.4c-8.7-0.8-17.4-1.9-26-2.9c-3-0.4-4.9,1-5.5,3.8c-0.6,2.9,1,4.7,3.7,5.6
	c0.8,0.3,1.7,0.4,2.6,0.5C446.5,497.1,466.7,499.5,491.6,499.6L491.6,499.6z M487.6,522.7c8.2,0,16.5,0,24.7,0c3.7,0,6.3-2.1,6.2-5
	c-0.1-2.8-2.4-4.8-6.1-4.8c-16.6,0-33.2,0-49.8,0c-3.9,0-6.2,2-6.1,5c0.1,3,2.4,4.7,6.4,4.8C471.1,522.7,479.3,522.7,487.6,522.7
	L487.6,522.7z M383.7,477.7c0,4.6,1,8.9,2.6,13.1c1,2.6,3.1,4.1,5.9,3.1c2.9-0.9,4-3.2,3.3-6.2c-0.6-2.4-1.4-4.8-1.8-7.2
	c-1.1-7.2,0.8-10.5,7.5-13c3.8-1.4,5.3-3.7,4.3-6.6c-1-2.9-3.6-3.8-7.5-2.7C388.8,461.1,383.7,467.9,383.7,477.7L383.7,477.7z"/>
<path class="st3" d="M322.2,242.1c-13.8,3.3-27.3,7.5-40.2,13.5c-0.3,0.1-0.7,0.1-1.1,0.1c-12.7-17.9-26.5-34.7-43.9-48.2
	c-6.9-5.4-14.4-10.2-23.2-11.4c-5.3-0.8-9.7-2.8-13.7-6.1c-4.4-3.6-8-7.9-11.5-12.3c-10.3-13.1-17.9-27.9-25.8-42.5
	c-2.4-12.5-1.9-25-0.9-38.7c2.3,4.4,4,7.9,5.9,11.3c11.2,20.9,25.6,39.3,43.4,54.8c16.5,14.4,35.9,21.5,57.8,22.1
	c3,1.9,6,3.7,9.1,5.6c-2.5,4.5-1.8,6.8,2.9,8.7c2.9,1.2,5.8,2.3,8.6,3.6c8.9,4.2,17,9.3,23.4,17c3.5,4.2,5,9.4,8,13.8
	C321.4,236.3,321.8,239.2,322.2,242.1L322.2,242.1z"/>
<path class="st4" d="M167,326.9c5.4,1.2,10,4.4,15,6.6c10.3,4.6,21,7.9,31.9,10.5c3.1,0.7,4.6,2.3,5.8,5c7.6,17.1,7.1,34.1-0.4,51
	c-1.2,2.7-1.2,4.7,0.4,7.2c2.6,4.1,4.8,8.4,7.3,12.6c1.2,2,0.9,3.2-1.3,4.5c-14.4,8.4-29.8,12.4-46.5,11.2c-0.9-0.1-1.8-0.1-2.6-0.4
	c-8.4-2.7-16.1,0.1-23.9,2.7c-5.1-1.6-9.6-4.5-14.8-7.7c2.6-1.1,4.6-1.9,6.6-2.6c19.3-6.9,38.5-13.8,57.8-20.8
	c0.8-0.3,1.6-0.6,2.4-0.9c2.3-1,3.7-2.7,3.3-5.3c-0.3-2.4-1.9-3.6-4.3-4c-6.5-1.2-13-2.3-19.5-3.7c-17.3-3.8-33.9-9.4-48.5-20
	c-4.1-3-8-6.2-11.8-10.9c8.3,1.9,15.8,3,23.4,3.6c19.6,1.5,38.6-1.8,57-8.1c2.8-1,4.5-3.4,4.5-6.4c0-3.3-1.9-5.5-5.1-6.7
	c-11.7-4.2-23-9.1-33.7-15.4C169,328.4,168,327.7,167,326.9L167,326.9z"/>
<path class="st5" d="M521.1,427.5c10.1-23.4,16.8-46.2-0.2-68.9c4.4,0,8.5-0.1,12.7,0c11.2,0.4,22.4,1,33.6,1.4
	c1.9,0.1,3.2,0.9,4.6,2.1c12.9,11.5,16.8,26,14.8,42.7c-0.2,1.9-0.9,3.7-1,5.5c-0.3,6.8-4.2,9.7-10.4,11.4
	C557.6,426.5,539.6,427.1,521.1,427.5L521.1,427.5z"/>
<path class="st5" d="M575.2,334.5c-23.4-20.3-49.1-36.8-77.3-49.4c-38.3-17.1-78.5-23.7-120.2-21c-28.7,1.8-56.5,8.4-83.4,18.5
	c-5,1.9-7.6,0.1-7.8-5.3c0.9-1.8,2.3-2.8,4.2-3.5c38.8-14.3,78.7-21.6,120.1-19.4c39.8,2.1,77,13.4,112.1,32.3
	c15.1,8.1,29.2,17.7,43.1,27.6l0.9,0.7l-0.1-0.1c0.5,0.9,1.2,1.6,2.3,1.6l-0.1-0.1c0.4,1.5,1.9,1.9,2.9,2.8
	c7.6,6.3,15.3,12.4,22.2,19.5C587.7,337.5,581.3,336.6,575.2,334.5L575.2,334.5z"/>
<path class="st0" d="M162.8,135.2c7.9,14.6,15.5,29.3,25.8,42.5c3.5,4.4,7.1,8.7,11.5,12.3c4,3.4,8.4,5.4,13.7,6.1
	c8.9,1.3,16.3,6.1,23.2,11.4c17.4,13.5,31.2,30.3,43.9,48.2c-3.5,1.9-7,3.7-10.5,5.6c-1.3,0.7-2.3,0.3-3.4-0.5
	c-23.1-16.8-46.4-33.4-69.4-50.4c-8.8-6.5-15.6-15.2-20.3-25.1C169.6,169.4,164.7,152.7,162.8,135.2L162.8,135.2z"/>
<path class="st3" d="M505.1,258.8c-0.2,0-0.4-0.1-0.5-0.2c-0.2-1.1-1.1-1.6-1.8-2.3c-10-8.3-19.4-17.2-28.2-26.7
	c-17.2-18.8-31.5-39.5-42.5-62.5c-1.6-3.3-3.7-6.5-4.1-10.3c1,0.3,1.1,1.3,1.5,2c16.1,32,40.8,54,75,65.3c0.7,0.2,1.3,0.6,2,0.9
	c5.1,5.1,10.2,10.1,15.4,15.2c-0.6,2.9,0.5,4.9,2.7,6.9c4.2,3.8,8.2,7.9,12.3,11.8c-0.2,1.3,0.6,2.3,1.2,3.4
	c2.7,4.9,5.8,9.4,7.4,14.8c-12.7-7-26.1-12.3-39.5-17.7C505.5,259.1,505.3,258.9,505.1,258.8L505.1,258.8z"/>
<path class="st5" d="M603.6,549.7c-0.9-2.8,0.2-5,1.7-7.3c13.6-20.6,23.9-42.6,28.1-67.2c5-29.1-0.1-56.6-12.8-83
	c-5-10.2-10.8-20-17.6-29.1c2.3-2.3,4.7-4.6,7-6.9c8.3,11.4,15.7,23.4,21.5,36.3c11,24.4,15.9,49.7,12.8,76.5
	c-3.5,29.5-15.6,55.4-31.6,79.9c-1.2,1.8-2.6,3-4.8,3.2C606.1,551.8,604.8,550.8,603.6,549.7L603.6,549.7z"/>
<path class="st0" d="M428,156.7c0.4,3.8,2.5,7,4.1,10.3c11,23,25.2,43.8,42.5,62.5c8.8,9.6,18.2,18.4,28.2,26.7
	c0.8,0.6,1.6,1.2,1.8,2.3c-30.4-7.5-55.1-22.7-69.5-51.6c-8.1-16.3-10.5-33.6-8.4-51.6C427.2,155.7,427.6,156.2,428,156.7L428,156.7
	z"/>
<path class="st0" d="M565.8,314.3c-13.9-9.9-28.1-19.5-43.1-27.6c-35-18.9-72.3-30.2-112.1-32.3c-41.4-2.2-81.3,5.1-120.1,19.4
	c-1.9,0.7-3.3,1.8-4.2,3.5c-7.3,1.5-14.3,3.8-21.5,5.9c-1.9,0.5-3.7,1.4-5.8,1c18.9-12.9,39.6-22.1,61.8-27.7
	c29-7.2,58.3-7.3,87.8-4.1c20.9,2.2,41.7,4.9,62,10.1c26.1,6.7,51,16.5,74.3,30.3c15.4,9.1,29.7,19.8,42.6,32.3
	c1,0.9,2.9,1.4,2.3,3.5c-5.4-2.2-9.6-6.2-14.7-8.9c-2.1-1.1-3.7-3.2-6.4-3.1l0.1,0.1c0-1.6-1.2-1.6-2.3-1.6l0.1,0.1
	C566.8,314.3,566.3,314.2,565.8,314.3L565.8,314.3z"/>
<path class="st4" d="M607.9,552c2.2-0.2,3.6-1.4,4.8-3.2c16-24.5,28.2-50.4,31.6-79.9c3.1-26.8-1.8-52.1-12.8-76.5
	c-5.8-12.9-13.2-24.9-21.5-36.3c2.4-3.6,2.4-3.6,4.9-0.2c12.4,17,22.6,35,28.6,55.3c3.7,12.5,5.4,25.4,6.3,38.3
	c0.7,9.9-2.1,19.8-3.2,29.7c-0.8,6.8-1.5,13.7-2.7,20.4c-4.2,23.3-14.9,43-32.7,58.7c-0.3,0.2-0.7,0.4-1,0.5
	C610.7,556.2,609.4,554.1,607.9,552L607.9,552z"/>
<path class="st0" d="M521.8,240c-5.1-5.1-10.2-10.1-15.4-15.2c7.3,1.4,14.4,4.2,21.9,4.8c0.9,0.1,1.7,1,2.4,1.6
	c21,17.8,37.2,39.2,48.4,64.4c0.5,1.2,1.5,2.3,0.8,4.3c-10.9-8.9-22.6-16.1-34.5-23.1c-1.5-5.4-4.7-10-7.4-14.8
	c-0.6-1.1-1.4-2-1.2-3.4c4.7,4.5,9.3,9,14.1,13.5c2.9,2.7,5.4,2.8,7.5,0.6c2.1-2.2,1.8-4.8-1-7.5c-8.9-8.6-17.8-17.1-26.8-25.7
	C527.1,236.4,525,236.6,521.8,240L521.8,240z"/>
<path class="st0" d="M278,190.3c-3-1.9-6-3.7-9.1-5.6c20.3-2.3,36.1,6.2,49.4,20.6c8.7,9.4,15.3,20.3,21,31.7
	c0.3,0.5,0.4,1.1,0.6,1.8c-6.1,1.1-11.9,2.2-17.8,3.3c-0.4-2.9-0.9-5.7-1.3-8.6c2.2,0.9,4.4,1.1,6.2-0.9c1.8-1.9,1.3-4.1,0.5-6.3
	c-2-5.9-5.4-11-9.6-15.5c-9.6-10.2-21.8-16-34.6-21C281.7,189.1,279.8,189.4,278,190.3z"/>
<path class="st4" d="M568.9,316.4c2.7-0.1,4.3,2,6.4,3.1c5.1,2.7,9.3,6.7,14.7,8.9l0,0c0.2,0.8,0.5,1.5,1.5,0.8l-0.1-0.1
	c-0.3,0.4-0.3,0.8,0.2,1.1c0.2,0.1,0.5-0.1,0.8-0.2c3.4,2.9,6.5,6.1,9.5,10c-3.1,0.7-5.4-1.2-8-1.3c-6.9-7.1-14.6-13.2-22.2-19.5
	C570.8,318.3,569.3,317.9,568.9,316.4L568.9,316.4z"/>
<path class="st3" d="M428,156.7c-0.4-0.5-0.9-1-1.3-1.5c0-0.4,0.1-0.9,0.1-1.3c0.2,0.2,0.5,0.5,0.6,0.8
	C427.7,155.4,427.8,156.1,428,156.7z"/>
<path class="st0" d="M591.5,329.2c-1,0.6-1.3,0-1.6-0.8C591,327.6,591.2,328.4,591.5,329.2z"/>
<path class="st0" d="M592.4,330c-0.3,0.1-0.6,0.3-0.8,0.2c-0.5-0.2-0.5-0.6-0.2-1.1C592.1,329,592.1,329.7,592.4,330z"/>
<path class="st0" d="M444.6,242.9c0.1,0.1,0.2,0.3,0.4,0.4c-0.3,0-0.5,0-0.8,0C444.3,243.1,444.4,243,444.6,242.9L444.6,242.9z"/>
<path class="st0" d="M505.1,258.8c0.2,0.1,0.5,0.3,0.7,0.4C505.6,259.1,505.3,258.9,505.1,258.8z"/>
<path class="st0" d="M580.4,300.2l0.3-0.1l0,0.3L580.4,300.2z"/>
<path class="st4" d="M166.4,326.8c0.2,0.1,0.4,0.1,0.6,0.2C166.8,326.9,166.6,326.9,166.4,326.8z"/>
<path class="st1" d="M398.8,360.6c-10-0.7-19.9-1.4-29.9-2c-1.4-0.1-2.7-0.1-4-0.9c-7.5-4.8-14.7-9.9-19.9-17.4
	c-4.7-6.8-5.5-14-1.9-21.6c1.4-2.9,2.7-3.6,5.6-1.5c11.3,8.1,23.7,13.8,37.6,16c10,1.6,19.9,0,29.8-1.3c12-1.7,24.1-2,36.2-0.4
	c12.1,1.6,20.6,8.2,22.5,17.8c1.1,5.4,0.2,10.7-1.4,15.9c-4.1,13.4-11.6,25.1-19.5,36.5c-0.9,1.3-2,1.6-3.5,1.8
	c-21.7,2.9-43.3,5.8-65,8.7c-1.9,0.3-3.4-0.1-4.9-1.3c-4.9-3.7-9.9-7.2-14.8-10.9c-1.7-1.3-3.2-1.8-5.5-1.3c-9,1.7-18.1,3-27.1,0.9
	c-9.4-2.1-12.9-7.8-10.9-17.1c0.6-2.6,1.7-4,4.5-4.6c23.6-5.4,47.2-10.9,70.8-16.4c0.3-0.1,0.7-0.2,1-0.3
	C398.7,361,398.8,360.8,398.8,360.6L398.8,360.6z M386.6,408.9c1.7-0.1,3-0.2,4.2-0.3c17.2-2.3,34.4-4.5,51.6-6.9
	c7.8-1.1,7.8-1.1,4.6-8.2c-3.9-8.5-8.3-16.8-13.9-24.3c-3.9-5.4-8.9-7.8-15.7-7.4c-11.7,0.8-23,3.6-35.3,6.2
	C397.1,380.3,396.7,394,386.6,408.9L386.6,408.9z"/>
<path class="st1" d="M491.6,499.6c-24.9,0-45.1-2.5-65.3-4.9c-0.9-0.1-1.7-0.3-2.6-0.5c-2.7-0.9-4.4-2.6-3.7-5.6
	c0.6-2.8,2.5-4.2,5.5-3.8c8.7,1,17.4,2.1,26,2.9c22.5,2.1,45.1,3.9,67.6-0.4c3.9-0.8,7.8-1.9,11.4-3.7c4-2,7.4-4.5,9.4-8.7
	c1.5-3.1,4.2-4,6.8-2.5c2.7,1.6,3.2,4,1.9,6.8c-3.6,8.1-10.3,12.3-18.2,15C516.3,499,501.8,499.8,491.6,499.6L491.6,499.6z"/>
<path class="st1" d="M487.6,522.7c-8.2,0-16.5,0-24.7,0c-4,0-6.3-1.8-6.4-4.8c-0.1-3,2.2-5,6.1-5c16.6,0,33.2,0,49.8,0
	c3.6,0,6,2,6.1,4.8c0.1,2.9-2.5,5-6.2,5C504.1,522.7,495.8,522.7,487.6,522.7L487.6,522.7z"/>
<path class="st1" d="M383.7,477.7c0-9.8,5.1-16.6,14.4-19.4c3.9-1.1,6.5-0.2,7.5,2.7c1,2.9-0.5,5.2-4.3,6.6
	c-6.7,2.5-8.7,5.8-7.5,12.9c0.4,2.5,1.2,4.8,1.8,7.2c0.7,3-0.4,5.3-3.3,6.2c-2.8,0.9-5-0.5-5.9-3.2
	C384.7,486.6,383.7,482.3,383.7,477.7L383.7,477.7z"/>
<path class="st5" d="M278,190.3c1.8-0.9,3.6-1.2,5.4-0.5c12.8,4.9,25,10.8,34.6,21c4.2,4.5,7.6,9.6,9.6,15.5
	c0.8,2.2,1.2,4.4-0.5,6.3c-1.8,2-4,1.7-6.2,0.9c-3-4.4-4.5-9.7-8-13.9c-6.4-7.6-14.6-12.8-23.4-17c-2.8-1.3-5.7-2.4-8.6-3.6
	C276.3,197.1,275.5,194.8,278,190.3L278,190.3z"/>
<path class="st4" d="M566.7,314.9c1.1,0,2.3,0,2.3,1.6C567.8,316.5,567.2,315.8,566.7,314.9z"/>
<path class="st4" d="M565.8,314.3c0.5-0.1,1,0,0.9,0.7C566.4,314.7,566.1,314.5,565.8,314.3z"/>
<path class="st5" d="M521.8,240c3.2-3.5,5.4-3.6,8.8-0.3c8.9,8.5,17.8,17.1,26.8,25.7c2.8,2.7,3.1,5.3,1,7.5
	c-2.1,2.2-4.6,2.1-7.5-0.6c-4.7-4.4-9.4-9-14.1-13.5c-4.1-3.9-8.1-8-12.3-11.8C522.3,245,521.1,242.9,521.8,240L521.8,240z"/>
<path class="st5" d="M386.6,408.9c10-14.8,10.5-28.6-4.5-40.9c12.2-2.6,23.6-5.4,35.3-6.2c6.8-0.4,11.8,2,15.7,7.4
	c5.6,7.6,9.9,15.8,13.9,24.3c3.3,7.1,3.3,7.1-4.6,8.2c-17.2,2.3-34.4,4.6-51.6,6.9C389.6,408.7,388.4,408.7,386.6,408.9L386.6,408.9
	z"/>
</svg>
